<mxfile host="app.diagrams.net" modified="2020-11-17T00:20:49.907Z" agent="5.0 (X11)" etag="5_F5s5EduHCjBLktsbNz" version="13.9.9" type="github">
  <diagram id="9EteZXF-jCiwz4vSj0yz" name="Page-1">
    <mxGraphModel dx="1350" dy="804" grid="1" gridSize="10" guides="1" tooltips="1" connect="1" arrows="1" fold="1" page="1" pageScale="1" pageWidth="850" pageHeight="1100" math="0" shadow="0">
      <root>
        <mxCell id="0" />
        <mxCell id="1" parent="0" />
        <mxCell id="EunvMsiJVjYTWWFU3nTb-1" value="&lt;h1 style=&quot;font-size: 41px&quot;&gt;&lt;font color=&quot;#7912FF&quot;&gt;Parent&lt;/font&gt;&lt;/h1&gt;" style="text;html=1;align=center;verticalAlign=middle;resizable=0;points=[];autosize=1;" vertex="1" parent="1">
          <mxGeometry x="360" y="45" width="140" height="70" as="geometry" />
        </mxCell>
        <mxCell id="EunvMsiJVjYTWWFU3nTb-2" value="" style="html=1;shadow=0;dashed=0;align=center;verticalAlign=middle;shape=mxgraph.arrows2.arrow;dy=0.6;dx=40;direction=south;notch=0;fillColor=#dae8fc;strokeColor=#6c8ebf;" vertex="1" parent="1">
          <mxGeometry x="410" y="100" width="30" height="55" as="geometry" />
        </mxCell>
        <mxCell id="EunvMsiJVjYTWWFU3nTb-3" value="&lt;font style=&quot;font-size: 16px&quot;&gt;pid1&lt;/font&gt;" style="ellipse;whiteSpace=wrap;html=1;fontSize=17;labelBackgroundColor=none;labelBorderColor=none;fillColor=#f8cecc;strokeColor=#b85450;" vertex="1" parent="1">
          <mxGeometry x="367" y="160" width="117" height="80" as="geometry" />
        </mxCell>
        <mxCell id="EunvMsiJVjYTWWFU3nTb-4" value="" style="html=1;shadow=0;dashed=0;align=center;verticalAlign=middle;shape=mxgraph.arrows2.arrow;dy=0.6;dx=40;flipH=1;notch=0;labelBackgroundColor=none;fontSize=17;fillColor=#dae8fc;strokeColor=#6c8ebf;" vertex="1" parent="1">
          <mxGeometry x="240" y="200" width="110" height="20" as="geometry" />
        </mxCell>
        <mxCell id="EunvMsiJVjYTWWFU3nTb-5" value="exec" style="text;html=1;align=center;verticalAlign=middle;resizable=0;points=[];autosize=1;fontSize=15;fontColor=#000000;" vertex="1" parent="1">
          <mxGeometry x="290" y="180" width="50" height="20" as="geometry" />
        </mxCell>
        <mxCell id="EunvMsiJVjYTWWFU3nTb-6" value="ls -l" style="text;html=1;align=center;verticalAlign=middle;resizable=0;points=[];autosize=1;fontSize=23;fontColor=#000000;strokeWidth=1;fontFamily=Georgia;fontStyle=1" vertex="1" parent="1">
          <mxGeometry x="160" y="190" width="60" height="30" as="geometry" />
        </mxCell>
        <mxCell id="EunvMsiJVjYTWWFU3nTb-7" value="" style="html=1;shadow=0;dashed=0;align=center;verticalAlign=middle;shape=mxgraph.arrows2.arrow;dy=0.6;dx=40;direction=south;notch=0;fillColor=#dae8fc;strokeColor=#6c8ebf;" vertex="1" parent="1">
          <mxGeometry x="410" y="250" width="30" height="55" as="geometry" />
        </mxCell>
        <mxCell id="EunvMsiJVjYTWWFU3nTb-8" value="&lt;p style=&quot;line-height: 110% ; font-size: 16px&quot;&gt;&lt;font style=&quot;font-size: 16px&quot;&gt;pid2&lt;/font&gt;&lt;/p&gt;" style="ellipse;whiteSpace=wrap;html=1;fontSize=17;labelBackgroundColor=none;labelBorderColor=none;fillColor=#f8cecc;strokeColor=#b85450;" vertex="1" parent="1">
          <mxGeometry x="367" y="310" width="117" height="80" as="geometry" />
        </mxCell>
        <mxCell id="EunvMsiJVjYTWWFU3nTb-9" value="" style="html=1;shadow=0;dashed=0;align=right;verticalAlign=middle;shape=mxgraph.arrows2.uTurnArrow;dy=11;arrowHead=43;dx2=40.25;labelBackgroundColor=none;strokeWidth=1;fontFamily=Georgia;fontSize=15;fontColor=#ffffff;direction=east;flipH=1;fillColor=#0050ef;strokeColor=#001DBC;" vertex="1" parent="1">
          <mxGeometry x="505" y="70" width="110" height="150" as="geometry" />
        </mxCell>
        <mxCell id="EunvMsiJVjYTWWFU3nTb-10" value="" style="html=1;shadow=0;dashed=0;align=center;verticalAlign=middle;shape=mxgraph.arrows2.uTurnArrow;dy=11;arrowHead=43;dx2=39;labelBackgroundColor=none;strokeWidth=1;fontFamily=Georgia;fontSize=15;fontColor=#ffffff;flipH=1;fillColor=#0050ef;strokeColor=#001DBC;" vertex="1" parent="1">
          <mxGeometry x="510" y="220" width="100" height="152.5" as="geometry" />
        </mxCell>
        <mxCell id="EunvMsiJVjYTWWFU3nTb-11" value="&lt;p style=&quot;line-height: 110% ; font-size: 16px&quot;&gt;pid3&lt;/p&gt;" style="ellipse;whiteSpace=wrap;html=1;fontSize=17;labelBackgroundColor=none;labelBorderColor=none;fillColor=#f8cecc;strokeColor=#b85450;" vertex="1" parent="1">
          <mxGeometry x="367" y="460" width="117" height="80" as="geometry" />
        </mxCell>
        <mxCell id="EunvMsiJVjYTWWFU3nTb-12" value="" style="html=1;shadow=0;dashed=0;align=center;verticalAlign=middle;shape=mxgraph.arrows2.arrow;dy=0.6;dx=40;direction=south;notch=0;fillColor=#dae8fc;strokeColor=#6c8ebf;" vertex="1" parent="1">
          <mxGeometry x="410" y="400" width="30" height="55" as="geometry" />
        </mxCell>
        <mxCell id="EunvMsiJVjYTWWFU3nTb-14" value="" style="html=1;shadow=0;dashed=0;align=center;verticalAlign=middle;shape=mxgraph.arrows2.uTurnArrow;dy=11;arrowHead=43;dx2=34;labelBackgroundColor=none;strokeWidth=1;fontFamily=Georgia;fontSize=15;fontColor=#ffffff;flipH=1;fillColor=#0050ef;strokeColor=#001DBC;" vertex="1" parent="1">
          <mxGeometry x="510" y="372.5" width="100" height="152.5" as="geometry" />
        </mxCell>
        <mxCell id="EunvMsiJVjYTWWFU3nTb-16" value="" style="html=1;shadow=0;dashed=0;align=center;verticalAlign=middle;shape=mxgraph.arrows2.arrow;dy=0.6;dx=40;flipH=1;notch=0;labelBackgroundColor=none;fontSize=17;fillColor=#dae8fc;strokeColor=#6c8ebf;" vertex="1" parent="1">
          <mxGeometry x="240" y="340" width="110" height="20" as="geometry" />
        </mxCell>
        <mxCell id="EunvMsiJVjYTWWFU3nTb-17" value="" style="html=1;shadow=0;dashed=0;align=center;verticalAlign=middle;shape=mxgraph.arrows2.arrow;dy=0.6;dx=40;flipH=1;notch=0;labelBackgroundColor=none;fontSize=17;fillColor=#dae8fc;strokeColor=#6c8ebf;" vertex="1" parent="1">
          <mxGeometry x="240" y="490" width="110" height="20" as="geometry" />
        </mxCell>
        <mxCell id="EunvMsiJVjYTWWFU3nTb-19" value="exec" style="text;html=1;align=center;verticalAlign=middle;resizable=0;points=[];autosize=1;fontSize=15;fontColor=#000000;" vertex="1" parent="1">
          <mxGeometry x="290" y="320" width="50" height="20" as="geometry" />
        </mxCell>
        <mxCell id="EunvMsiJVjYTWWFU3nTb-20" value="exec" style="text;html=1;align=center;verticalAlign=middle;resizable=0;points=[];autosize=1;fontSize=15;fontColor=#000000;" vertex="1" parent="1">
          <mxGeometry x="290" y="470" width="50" height="20" as="geometry" />
        </mxCell>
        <mxCell id="EunvMsiJVjYTWWFU3nTb-21" value="" style="html=1;shadow=0;dashed=0;align=center;verticalAlign=middle;shape=mxgraph.arrows2.arrow;dy=0.6;dx=40;direction=south;notch=0;fillColor=#dae8fc;strokeColor=#6c8ebf;" vertex="1" parent="1">
          <mxGeometry x="410" y="550" width="30" height="55" as="geometry" />
        </mxCell>
        <mxCell id="EunvMsiJVjYTWWFU3nTb-22" value="&lt;font style=&quot;font-size: 22px&quot; color=&quot;#9933FF&quot;&gt;&lt;b&gt;Terminates&lt;/b&gt;&lt;/font&gt;" style="text;html=1;align=center;verticalAlign=middle;resizable=0;points=[];autosize=1;fontSize=15;fontFamily=Georgia;fontColor=#000000;" vertex="1" parent="1">
          <mxGeometry x="350.5" y="620" width="150" height="30" as="geometry" />
        </mxCell>
        <mxCell id="EunvMsiJVjYTWWFU3nTb-23" value="cat hello.txt" style="text;html=1;align=center;verticalAlign=middle;resizable=0;points=[];autosize=1;fontSize=23;fontFamily=Georgia;fontColor=#000000;fontStyle=1" vertex="1" parent="1">
          <mxGeometry x="70" y="330" width="170" height="30" as="geometry" />
        </mxCell>
        <mxCell id="EunvMsiJVjYTWWFU3nTb-24" value="&lt;b&gt;whoami&lt;/b&gt;" style="text;html=1;align=center;verticalAlign=middle;resizable=0;points=[];autosize=1;fontSize=23;fontFamily=Georgia;fontColor=#000000;" vertex="1" parent="1">
          <mxGeometry x="120" y="485" width="120" height="30" as="geometry" />
        </mxCell>
      </root>
    </mxGraphModel>
  </diagram>
</mxfile>
